<?xml version="1.0"?>
<mxfile host="Electron" modified="2022-07-03T04:23:05.597Z" agent="5.0 (X11; Linux x86_64) AppleWebKit/537.36 (KHTML, like Gecko) draw.io/18.1.3 Chrome/100.0.4896.143 Electron/18.2.3 Safari/537.36" etag="xJ_Q_pbC8fTFReWu9c07" version="18.1.3">
  <diagram id="Mi4vo-P_HtHrIlNZv_10" name="Page-1">
    <mxGraphModel dx="2" dy="1" grid="1" gridSize="10" guides="1" tooltips="1" connect="1" arrows="1" fold="1" page="1" pageScale="1" pageWidth="850" pageHeight="1100" math="0" shadow="0">
      <root>
        <mxCell id="0"/>
        <mxCell id="1" parent="0"/>
        <mxCell id="YipHLabBUMRKAe9MWarA-2" value="tag" style="rounded=0;whiteSpace=wrap;html=1;fontFamily=mono;" parent="1" vertex="1">
          <mxGeometry x="80" y="80" width="130" height="20" as="geometry"/>
        </mxCell>
        <mxCell id="YipHLabBUMRKAe9MWarA-42" style="edgeStyle=orthogonalEdgeStyle;rounded=0;orthogonalLoop=1;jettySize=auto;html=1;entryX=0;entryY=0.5;entryDx=0;entryDy=0;fontFamily=mono;" parent="1" source="YipHLabBUMRKAe9MWarA-3" target="YipHLabBUMRKAe9MWarA-14" edge="1">
          <mxGeometry relative="1" as="geometry">
            <Array as="points">
              <mxPoint x="260" y="90"/>
              <mxPoint x="260" y="130"/>
            </Array>
          </mxGeometry>
        </mxCell>
        <mxCell id="YipHLabBUMRKAe9MWarA-43" style="edgeStyle=orthogonalEdgeStyle;rounded=0;orthogonalLoop=1;jettySize=auto;html=1;entryX=0;entryY=0.5;entryDx=0;entryDy=0;fontFamily=mono;" parent="1" source="YipHLabBUMRKAe9MWarA-3" target="YipHLabBUMRKAe9MWarA-29" edge="1">
          <mxGeometry relative="1" as="geometry">
            <Array as="points">
              <mxPoint x="260" y="90"/>
              <mxPoint x="260" y="60"/>
              <mxPoint x="500" y="60"/>
              <mxPoint x="500" y="130"/>
            </Array>
          </mxGeometry>
        </mxCell>
        <mxCell id="YipHLabBUMRKAe9MWarA-3" value="idx" style="rounded=0;whiteSpace=wrap;html=1;fontFamily=mono;" parent="1" vertex="1">
          <mxGeometry x="210" y="80" width="30" height="20" as="geometry"/>
        </mxCell>
        <mxCell id="YipHLabBUMRKAe9MWarA-4" value="0" style="text;html=1;align=left;verticalAlign=middle;resizable=0;points=[];autosize=1;strokeColor=none;fillColor=none;fontFamily=mono;" parent="1" vertex="1">
          <mxGeometry x="80" y="60" width="20" height="20" as="geometry"/>
        </mxCell>
        <mxCell id="YipHLabBUMRKAe9MWarA-5" value="5&lt;br&gt;2" style="text;html=1;align=left;verticalAlign=middle;resizable=0;points=[];autosize=1;strokeColor=none;fillColor=none;fontFamily=mono;" parent="1" vertex="1">
          <mxGeometry x="210" y="50" width="20" height="30" as="geometry"/>
        </mxCell>
        <mxCell id="YipHLabBUMRKAe9MWarA-6" value="6&lt;br&gt;3" style="text;html=1;align=left;verticalAlign=middle;resizable=0;points=[];autosize=1;strokeColor=none;fillColor=none;fontFamily=mono;" parent="1" vertex="1">
          <mxGeometry x="230" y="50" width="20" height="30" as="geometry"/>
        </mxCell>
        <mxCell id="YipHLabBUMRKAe9MWarA-7" value="5&lt;br&gt;1" style="text;html=1;align=left;verticalAlign=middle;resizable=0;points=[];autosize=1;strokeColor=none;fillColor=none;fontFamily=mono;" parent="1" vertex="1">
          <mxGeometry x="200" y="50" width="20" height="30" as="geometry"/>
        </mxCell>
        <mxCell id="YipHLabBUMRKAe9MWarA-8" value="tag" style="rounded=0;whiteSpace=wrap;html=1;fontFamily=mono;" parent="1" vertex="1">
          <mxGeometry x="320" y="80" width="30" height="20" as="geometry"/>
        </mxCell>
        <mxCell id="YipHLabBUMRKAe9MWarA-9" value="-|np|uops|imm" style="rounded=0;whiteSpace=wrap;html=1;fontFamily=mono;" parent="1" vertex="1">
          <mxGeometry x="350" y="80" width="130" height="20" as="geometry"/>
        </mxCell>
        <mxCell id="YipHLabBUMRKAe9MWarA-10" value="&lt;i&gt;2bit:5px&lt;/i&gt;" style="text;html=1;align=center;verticalAlign=middle;resizable=0;points=[];autosize=1;strokeColor=none;fillColor=none;fontFamily=mono;" parent="1" vertex="1">
          <mxGeometry x="80" y="40" width="70" height="20" as="geometry"/>
        </mxCell>
        <mxCell id="YipHLabBUMRKAe9MWarA-11" value="&lt;i&gt;8bit:5px&lt;/i&gt;" style="text;html=1;align=center;verticalAlign=middle;resizable=0;points=[];autosize=1;strokeColor=none;fillColor=none;fontFamily=mono;" parent="1" vertex="1">
          <mxGeometry x="320" y="40" width="70" height="20" as="geometry"/>
        </mxCell>
        <mxCell id="YipHLabBUMRKAe9MWarA-12" value="..." style="rounded=0;whiteSpace=wrap;html=1;fontFamily=mono;" parent="1" vertex="1">
          <mxGeometry x="320" y="100" width="30" height="20" as="geometry"/>
        </mxCell>
        <mxCell id="YipHLabBUMRKAe9MWarA-13" value="..." style="rounded=0;whiteSpace=wrap;html=1;fontFamily=mono;" parent="1" vertex="1">
          <mxGeometry x="350" y="100" width="130" height="20" as="geometry"/>
        </mxCell>
        <mxCell id="YipHLabBUMRKAe9MWarA-14" value="tag" style="rounded=0;whiteSpace=wrap;html=1;fontFamily=mono;" parent="1" vertex="1">
          <mxGeometry x="320" y="120" width="30" height="20" as="geometry"/>
        </mxCell>
        <mxCell id="YipHLabBUMRKAe9MWarA-15" value="-|np|uops|imm" style="rounded=0;whiteSpace=wrap;html=1;fontFamily=mono;" parent="1" vertex="1">
          <mxGeometry x="350" y="120" width="130" height="20" as="geometry"/>
        </mxCell>
        <mxCell id="YipHLabBUMRKAe9MWarA-16" value="..." style="rounded=0;whiteSpace=wrap;html=1;fontFamily=mono;" parent="1" vertex="1">
          <mxGeometry x="320" y="140" width="30" height="20" as="geometry"/>
        </mxCell>
        <mxCell id="YipHLabBUMRKAe9MWarA-17" value="..." style="rounded=0;whiteSpace=wrap;html=1;fontFamily=mono;" parent="1" vertex="1">
          <mxGeometry x="350" y="140" width="130" height="20" as="geometry"/>
        </mxCell>
        <mxCell id="YipHLabBUMRKAe9MWarA-18" value="tag" style="rounded=0;whiteSpace=wrap;html=1;fontFamily=mono;" parent="1" vertex="1">
          <mxGeometry x="320" y="160" width="30" height="20" as="geometry"/>
        </mxCell>
        <mxCell id="YipHLabBUMRKAe9MWarA-19" value="-|np|uops|imm" style="rounded=0;whiteSpace=wrap;html=1;fontFamily=mono;" parent="1" vertex="1">
          <mxGeometry x="350" y="160" width="130" height="20" as="geometry"/>
        </mxCell>
        <mxCell id="YipHLabBUMRKAe9MWarA-21" value="0" style="text;html=1;align=right;verticalAlign=middle;resizable=0;points=[];autosize=1;strokeColor=none;fillColor=none;fontFamily=mono;" parent="1" vertex="1">
          <mxGeometry x="300" y="80" width="20" height="20" as="geometry"/>
        </mxCell>
        <mxCell id="YipHLabBUMRKAe9MWarA-22" value="4095" style="text;html=1;align=right;verticalAlign=middle;resizable=0;points=[];autosize=1;strokeColor=none;fillColor=none;fontFamily=mono;" parent="1" vertex="1">
          <mxGeometry x="280" y="160" width="40" height="20" as="geometry"/>
        </mxCell>
        <mxCell id="YipHLabBUMRKAe9MWarA-25" value="tag" style="rounded=0;whiteSpace=wrap;html=1;fontFamily=mono;" parent="1" vertex="1">
          <mxGeometry x="520" y="80" width="30" height="20" as="geometry"/>
        </mxCell>
        <mxCell id="YipHLabBUMRKAe9MWarA-26" value="-|np|uops|imm" style="rounded=0;whiteSpace=wrap;html=1;fontFamily=mono;" parent="1" vertex="1">
          <mxGeometry x="550" y="80" width="130" height="20" as="geometry"/>
        </mxCell>
        <mxCell id="YipHLabBUMRKAe9MWarA-29" value="tag" style="rounded=0;whiteSpace=wrap;html=1;fontFamily=mono;" parent="1" vertex="1">
          <mxGeometry x="520" y="120" width="30" height="20" as="geometry"/>
        </mxCell>
        <mxCell id="YipHLabBUMRKAe9MWarA-30" value="-|np|uops|imm" style="rounded=0;whiteSpace=wrap;html=1;fontFamily=mono;" parent="1" vertex="1">
          <mxGeometry x="550" y="120" width="130" height="20" as="geometry"/>
        </mxCell>
        <mxCell id="YipHLabBUMRKAe9MWarA-33" value="tag" style="rounded=0;whiteSpace=wrap;html=1;fontFamily=mono;" parent="1" vertex="1">
          <mxGeometry x="520" y="160" width="30" height="20" as="geometry"/>
        </mxCell>
        <mxCell id="YipHLabBUMRKAe9MWarA-34" value="-|np|uops|imm" style="rounded=0;whiteSpace=wrap;html=1;fontFamily=mono;" parent="1" vertex="1">
          <mxGeometry x="550" y="160" width="130" height="20" as="geometry"/>
        </mxCell>
        <mxCell id="YipHLabBUMRKAe9MWarA-39" value="&lt;b&gt;level 1&amp;nbsp;&lt;/b&gt;&lt;b&gt;uop cache&lt;/b&gt;" style="text;html=1;align=center;verticalAlign=middle;resizable=0;points=[];autosize=1;strokeColor=none;fillColor=none;fontFamily=mono;" parent="1" vertex="1">
          <mxGeometry x="430" y="20" width="140" height="20" as="geometry"/>
        </mxCell>
        <mxCell id="YipHLabBUMRKAe9MWarA-40" value="way0" style="text;html=1;align=center;verticalAlign=middle;resizable=0;points=[];autosize=1;strokeColor=none;fillColor=none;fontFamily=mono;" parent="1" vertex="1">
          <mxGeometry x="380" y="60" width="40" height="20" as="geometry"/>
        </mxCell>
        <mxCell id="YipHLabBUMRKAe9MWarA-41" value="way1" style="text;html=1;align=center;verticalAlign=middle;resizable=0;points=[];autosize=1;strokeColor=none;fillColor=none;fontFamily=mono;" parent="1" vertex="1">
          <mxGeometry x="580" y="60" width="40" height="20" as="geometry"/>
        </mxCell>
        <mxCell id="YipHLabBUMRKAe9MWarA-46" value="..." style="rounded=0;whiteSpace=wrap;html=1;fontFamily=mono;" parent="1" vertex="1">
          <mxGeometry x="520" y="140" width="30" height="20" as="geometry"/>
        </mxCell>
        <mxCell id="YipHLabBUMRKAe9MWarA-47" value="..." style="rounded=0;whiteSpace=wrap;html=1;fontFamily=mono;" parent="1" vertex="1">
          <mxGeometry x="550" y="140" width="130" height="20" as="geometry"/>
        </mxCell>
        <mxCell id="YipHLabBUMRKAe9MWarA-48" value="..." style="rounded=0;whiteSpace=wrap;html=1;fontFamily=mono;" parent="1" vertex="1">
          <mxGeometry x="520" y="100" width="30" height="20" as="geometry"/>
        </mxCell>
        <mxCell id="YipHLabBUMRKAe9MWarA-49" value="..." style="rounded=0;whiteSpace=wrap;html=1;fontFamily=mono;" parent="1" vertex="1">
          <mxGeometry x="550" y="100" width="130" height="20" as="geometry"/>
        </mxCell>
      </root>
    </mxGraphModel>
  </diagram>
</mxfile>
